# xmcd
#
# Track frame offsets:
#	150
#	19210
#	42833
#	57035
#	79832
#	97377
#	117092
#	131017
#	155463
#	176321
#	203468
#	220479
#	238761
#	255691
#	274279
#	295042
#	307292
#	328316
#	342556
#
# Disc length: 4791 seconds
#
# Revision: 1
# Processed by: cddbd v1.5.2PL0 Copyright (c) Steve Scherf et al.
# Submitted via: EasyCDDAExtractor 2010.6.0.0
#
DISCID=2512b513
DTITLE=Various Artist - Akella Presents - Rockin' Blues - vol.17  CD2
DYEAR=2010
DGENRE=Blues
TTITLE0=BACKBONE SLIP - Breaking Up Somebody's Home
TTITLE1=JAMES SOLBERG - See That My Grave Is Kept Clean
TTITLE2=BLUE JEANS - Rock Me
TTITLE3=SLOLEAK - White Lines
TTITLE4=GEORGE THOROGOOD - The Usual
TTITLE5=OMAR and The HOWLERS - Black Bottom
TTITLE6=BIG ED SULLIVAN - What You Say and What You Do
TTITLE7=DAVE HOLE - Demolition Man
TTITLE8=ZZ TOP - Fuzzbox Voodoo
TTITLE9=KEVIN THORPE - Blues In Bottle
TTITLE10=SY KLOPPS - My Name Is Sy Klopps
TTITLE11=TOTH BAGI BAND - Your Way
TTITLE12=CANNED HEAT - Too Much Giddyup
TTITLE13=The POUNDERS - Busted
TTITLE14=JIM SUHLERr and MONKEY BEATt - Bad News
TTITLE15=THE DUSTERS - Poison Love
TTITLE16=SMOKIN' JOE KUBEK - Worst Heartache
TTITLE17=UNDERDOGS - Florida Bound
TTITLE18=BO WILSON BAND - Hard Time in the Plent
EXTD=
EXTT0=
EXTT1=
EXTT2=
EXTT3=
EXTT4=
EXTT5=
EXTT6=
EXTT7=
EXTT8=
EXTT9=
EXTT10=
EXTT11=
EXTT12=
EXTT13=
EXTT14=
EXTT15=
EXTT16=
EXTT17=
EXTT18=
PLAYORDER=
